name Walk6.mot
datacolumns 19
datarows 27
range 2.13500000 2.16100000
endheader

                time	   L_ground_force_vx	   L_ground_force_vy	   L_ground_force_vz	   L_ground_force_px	   L_ground_force_py	   L_ground_force_pz	   R_ground_force_vx	   R_ground_force_vy	   R_ground_force_vz	   R_ground_force_px	   R_ground_force_py	   R_ground_force_pz	   L_ground_torque_x	   L_ground_torque_y	   L_ground_torque_z	   R_ground_torque_x	   R_ground_torque_y	   R_ground_torque_z	
          2.13500000	          0.00845480	          0.01241926	         -0.00100099	         -0.00016061	          0.00000000	         -0.00002250	        -22.21173053	        674.79476236	        -41.14303222	          0.15698260	          0.00000000	          0.10969293	          0.00000000	          0.00011729	          0.00000000	          0.00000000	          8.78410257	          0.00000000	
          2.13600000	          0.00736166	          0.00950688	         -0.00099208	         -0.00014976	          0.00000000	         -0.00002092	        -21.83661774	        673.71440187	        -41.12747939	          0.15716751	          0.00000000	          0.10978834	          0.00000000	          0.00010638	          0.00000000	          0.00000000	          8.75196618	          0.00000000	
          2.13700000	          0.00633364	          0.00680621	         -0.00098018	         -0.00013927	          0.00000000	         -0.00001939	        -21.46317202	        672.63823185	        -41.11257800	          0.15735088	          0.00000000	          0.10988309	          0.00000000	          0.00009599	          0.00000000	          0.00000000	          8.71973266	          0.00000000	
          2.13800000	          0.00536910	          0.00430944	         -0.00096559	         -0.00012914	          0.00000000	         -0.00001792	        -21.09133068	        671.56662962	        -41.09819445	          0.15753265	          0.00000000	          0.10997712	          0.00000000	          0.00008612	          0.00000000	          0.00000000	          8.68738818	          0.00000000	
          2.13900000	          0.00446627	          0.00200867	         -0.00094860	         -0.00011939	          0.00000000	         -0.00001651	        -20.72103032	        670.49998282	        -41.08419377	          0.15771274	          0.00000000	          0.11007037	          0.00000000	          0.00007676	          0.00000000	          0.00000000	          8.65491790	          0.00000000	
          2.14000000	          0.00362334	         -0.00010407	         -0.00092946	         -0.00011002	          0.00000000	         -0.00001515	        -20.35220684	        669.43868819	        -41.07044006	          0.15789108	          0.00000000	          0.11016279	          0.00000000	          0.00006791	          0.00000000	          0.00000000	          8.62230610	          0.00000000	
          2.14100000	          0.00283838	         -0.00203678	         -0.00090844	         -0.00010102	          0.00000000	         -0.00001386	        -19.98479553	        668.38315041	        -41.05679732	          0.15806759	          0.00000000	          0.11025432	          0.00000000	          0.00005956	          0.00000000	          0.00000000	          8.58953638	          0.00000000	
          2.14200000	          0.00210943	         -0.00379747	         -0.00088577	         -0.00009241	          0.00000000	         -0.00001262	        -19.61873122	        667.33378133	        -41.04313036	          0.15824222	          0.00000000	          0.11034490	          0.00000000	          0.00005169	          0.00000000	          0.00000000	          8.55659205	          0.00000000	
          2.14300000	          0.00143449	         -0.00539411	         -0.00086168	         -0.00008418	          0.00000000	         -0.00001144	        -19.25394850	        666.29099934	        -41.02930580	          0.15841488	          0.00000000	          0.11043449	          0.00000000	          0.00004429	          0.00000000	          0.00000000	          8.52345650	          0.00000000	
          2.14400000	          0.00081152	         -0.00683461	         -0.00083639	         -0.00007634	          0.00000000	         -0.00001031	        -18.89038190	        665.25522861	        -41.01519298	          0.15858553	          0.00000000	          0.11052303	          0.00000000	          0.00003736	          0.00000000	          0.00000000	          8.49011352	          0.00000000	
          2.14500000	          0.00023845	         -0.00812681	         -0.00081008	         -0.00006887	          0.00000000	         -0.00000924	        -18.52796609	        664.22689788	        -41.00066475	          0.15875408	          0.00000000	          0.11061048	          0.00000000	          0.00003087	          0.00000000	          0.00000000	          8.45654768	          0.00000000	
          2.14600000	         -0.00028680	         -0.00927843	         -0.00078295	         -0.00006177	          0.00000000	         -0.00000823	        -18.16663630	        663.20643919	        -40.98559819	          0.15892046	          0.00000000	          0.11069677	          0.00000000	          0.00002482	          0.00000000	          0.00000000	          8.42274450	          0.00000000	
          2.14700000	         -0.00076630	         -0.01029707	         -0.00075517	         -0.00005505	          0.00000000	         -0.00000727	        -17.80632869	        662.19428671	        -40.96987507	          0.15908463	          0.00000000	          0.11078189	          0.00000000	          0.00001919	          0.00000000	          0.00000000	          8.38869060	          0.00000000	
          2.14800000	         -0.00120214	         -0.01119020	         -0.00072690	         -0.00004869	          0.00000000	         -0.00000637	        -17.44698084	        661.19087606	        -40.95338216	          0.15924651	          0.00000000	          0.11086576	          0.00000000	          0.00001397	          0.00000000	          0.00000000	          8.35437367	          0.00000000	
          2.14900000	         -0.00159638	         -0.01196510	         -0.00069828	         -0.00004269	          0.00000000	         -0.00000552	        -17.08853220	        660.19664373	        -40.93601139	          0.15940604	          0.00000000	          0.11094836	          0.00000000	          0.00000913	          0.00000000	          0.00000000	          8.31978242	          0.00000000	
          2.15000000	         -0.00195107	         -0.01262890	         -0.00066946	         -0.00003703	          0.00000000	         -0.00000472	        -16.73092439	        659.21202667	        -40.91765987	          0.15956316	          0.00000000	          0.11102965	          0.00000000	          0.00000468	          0.00000000	          0.00000000	          8.28490644	          0.00000000	
          2.15100000	         -0.00226823	         -0.01318854	         -0.00064056	         -0.00003172	          0.00000000	         -0.00000397	        -16.37410170	        658.23746146	        -40.89822989	          0.15971783	          0.00000000	          0.11110959	          0.00000000	          0.00000058	          0.00000000	          0.00000000	          8.24973611	          0.00000000	
          2.15200000	         -0.00254985	         -0.01365077	         -0.00061170	         -0.00002674	          0.00000000	         -0.00000327	        -16.01801140	        657.27338286	        -40.87762872	          0.15986999	          0.00000000	          0.11118814	          0.00000000	         -0.00000317	          0.00000000	          0.00000000	          8.21426241	          0.00000000	
          2.15300000	         -0.00279789	         -0.01402211	         -0.00058297	         -0.00002208	          0.00000000	         -0.00000262	        -15.66260414	        656.32022168	        -40.85576827	          0.16001961	          0.00000000	          0.11126528	          0.00000000	         -0.00000658	          0.00000000	          0.00000000	          8.17847678	          0.00000000	
          2.15400000	         -0.00301427	         -0.01430889	         -0.00055449	         -0.00001773	          0.00000000	         -0.00000201	        -15.30783424	        655.37840213	        -40.83256464	          0.16016664	          0.00000000	          0.11134098	          0.00000000	         -0.00000969	          0.00000000	          0.00000000	          8.14237079	          0.00000000	
          2.15500000	         -0.00320086	         -0.01451721	         -0.00052634	         -0.00001369	          0.00000000	         -0.00000145	        -14.95365973	        654.44833931	        -40.80793775	          0.16031105	          0.00000000	          0.11141522	          0.00000000	         -0.00001249	          0.00000000	          0.00000000	          8.10593601	          0.00000000	
          2.15600000	         -0.00335949	         -0.01465297	         -0.00049858	         -0.00000994	          0.00000000	         -0.00000093	        -14.60004213	        653.53043723	        -40.78181108	          0.16045281	          0.00000000	          0.11148797	          0.00000000	         -0.00001501	          0.00000000	          0.00000000	          8.06916382	          0.00000000	
          2.15700000	         -0.00349194	         -0.01472182	         -0.00047131	         -0.00000647	          0.00000000	         -0.00000045	        -14.24694587	        652.62508742	        -40.75411181	          0.16059187	          0.00000000	          0.11155922	          0.00000000	         -0.00001725	          0.00000000	          0.00000000	          8.03204551	          0.00000000	
          2.15800000	         -0.00359993	         -0.01472918	         -0.00044457	         -0.00000327	          0.00000000	         -0.00000001	        -13.89433746	        651.73266758	        -40.72477113	          0.16072820	          0.00000000	          0.11162892	          0.00000000	         -0.00001924	          0.00000000	          0.00000000	          7.99457241	          0.00000000	
          2.15900000	         -0.00368514	         -0.01468025	         -0.00041843	         -0.00000033	          0.00000000	          0.00000040	        -13.54218454	        650.85354039	        -40.69372473	          0.16086177	          0.00000000	          0.11169706	          0.00000000	         -0.00002099	          0.00000000	          0.00000000	          7.95673618	          0.00000000	
          2.16000000	         -0.00374918	         -0.01458002	         -0.00039293	          0.00000236	          0.00000000	          0.00000076	        -13.19045504	        649.98805241	        -40.66091347	          0.16099255	          0.00000000	          0.11176361	          0.00000000	         -0.00002251	          0.00000000	          0.00000000	          7.91852891	          0.00000000	
          2.16100000	         -0.00379360	         -0.01443321	         -0.00036811	          0.00000482	          0.00000000	          0.00000110	        -12.83911684	        649.13653361	        -40.62628394	          0.16112050	          0.00000000	          0.11182854	          0.00000000	         -0.00002382	          0.00000000	          0.00000000	          7.87994327	          0.00000000	
